<svg xmlns="http://www.w3.org/2000/svg" style="isolation:isolate" viewBox="502 712.797 227.269 185.741" width="227.269" height="185.741">
  <defs>
    <clipPath id="a">
      <path d="M502 712.797h322.846v185.741H502z"/>
    </clipPath>
  </defs>
  <g clip-path="url(#a)" transform="translate(-95.577)">
    <path d="M699.929 802.544c-.313 3.303-1.549 5.88-3.704 7.728-2.153 1.858-5.012 2.779-8.59 2.779-2.498 0-4.699-.58-6.601-1.757-1.903-1.168-3.366-2.832-4.401-4.983-1.034-2.157-1.573-4.665-1.613-7.511v-2.893c0-2.926.517-5.503 1.565-7.723 1.051-2.228 2.554-3.945 4.511-5.151 1.966-1.209 4.23-1.811 6.797-1.811 3.462 0 6.241.927 8.356 2.777 2.115 1.848 3.335 4.472 3.68 7.861h-5.426c-.259-2.22-.916-3.83-1.965-4.821-1.058-.982-2.608-1.477-4.645-1.477-2.365 0-4.189.859-5.458 2.569-1.267 1.709-1.919 4.224-1.949 7.528v2.745c0 3.351.604 5.912 1.817 7.667 1.214 1.765 2.99 2.638 5.332 2.638 2.139 0 3.742-.471 4.823-1.422 1.082-.952 1.762-2.531 2.045-4.743h5.426M731.617 799.318v9.468h5.99c1.69 0 3.008-.403 3.96-1.224.954-.822 1.426-1.962 1.426-3.414 0-3.148-1.642-4.761-4.944-4.83zm0-3.892h5.285c1.675 0 2.984-.372 3.929-1.118.946-.745 1.418-1.802 1.418-3.171 0-1.504-.434-2.592-1.309-3.262-.875-.667-2.232-1.002-4.085-1.002h-5.238zm-5.395 17.625v-30.445h10.633c3.512 0 6.186.693 8.013 2.077 1.837 1.376 2.752 3.436 2.752 6.166 0 1.392-.379 2.646-1.147 3.763-.767 1.119-1.89 1.978-3.371 2.593 1.675.449 2.977 1.286 3.891 2.516.915 1.233 1.371 2.716 1.371 4.448 0 2.852-.93 5.049-2.797 6.585-1.867 1.536-4.542 2.297-8.03 2.297zM688.858 766.695c0 5.731-4.643 10.376-10.379 10.376-5.727 0-10.378-4.645-10.378-10.376 0-5.738 4.651-10.382 10.378-10.382 5.736 0 10.379 4.644 10.379 10.382zM747.008 756.92c5.401 1.935 8.212 7.863 6.284 13.264-1.928 5.398-7.86 8.206-13.261 6.279-5.4-1.927-8.209-7.863-6.281-13.264 1.926-5.39 7.866-8.207 13.258-6.279z" fill="#fff"/>
    <path d="M711.692 813.051v-98.254m-32.521 48.247l8.129-12.064 24.392-36.183 24.39 36.183 8.131 12.064" fill="none" stroke="#fff" stroke-width="4"/>
    <path d="M687.474 752.161l24.195 26.294 24.24-26.294" fill="none" stroke="#fff" stroke-width="4"/>
    <g>
      <path d="M722.082 823.28c-2.786 0-5.033.912-6.738 2.735-1.706 1.823-2.559 4.994-2.559 9.512v4.59c0 4.505.86 7.695 2.578 9.57 1.719 1.875 3.972 2.813 6.758 2.813 2.813 0 5.059-.938 6.738-2.813 1.693-1.875 2.54-5.065 2.54-9.57v-4.59c0-4.518-.853-7.689-2.56-9.512-1.692-1.823-3.944-2.734-6.757-2.734zm-29.14.392l-1.524 14.335 3.77.938a8.206 8.206 0 0 1 1.64-1.191c.573-.326 1.413-.489 2.52-.489 1.653 0 2.91.528 3.77 1.582.859 1.055 1.288 2.396 1.288 4.024 0 1.705-.39 3.105-1.172 4.199-.768 1.08-1.92 1.621-3.457 1.621-2.734 0-4.284-1.426-4.648-4.277h-4.61c.17 2.643 1.16 4.655 2.97 6.035 1.822 1.367 3.919 2.05 6.288 2.05 3.164 0 5.515-.924 7.051-2.773 1.537-1.849 2.305-4.088 2.305-6.719 0-2.955-.755-5.286-2.266-6.992-1.51-1.718-3.613-2.578-6.308-2.578-.977 0-1.85.124-2.618.371-.768.248-1.373.495-1.816.742l.762-6.796h11.328v-4.083zm29.14 3.417c1.471 0 2.604.573 3.398 1.72.795 1.132 1.192 3.13 1.192 5.995v5.996c0 2.878-.39 4.916-1.172 6.114-.781 1.185-1.908 1.777-3.379 1.777-1.458 0-2.591-.592-3.398-1.777-.795-1.198-1.192-3.236-1.192-6.114v-5.996c0-2.864.397-4.863 1.192-5.996.794-1.146 1.914-1.719 3.359-1.719z" aria-label="50" font-weight="500" font-size="40" font-family="Roboto" fill="#fff"/>
    </g>
    <g>
      <path d="M779.051 723.859c-.013 0-.022.002-.026.007-.067.067.229 1.317.66 2.84.428 1.513.997 3.329 1.409 4.477.9 2.505 1.909 4.78 2.963 6.735 1.847 2.809 4.38 5.402 6.93 6.947 1.405.852 3.562 1.702 4.957 1.833l.058.136.091.216.093.217.091.218.092.217.091.217.092.218a48.588 48.588 0 0 1 .181.435l.091.218.09.218.09.217.09.219.09.218.089.219.09.218.088.218.089.219.073.181.015.038.089.219.088.219.088.219.087.22.087.219.087.22.087.22.086.22.086.22.085.22.084.222c.029.073.056.147.084.22l.084.222.082.222a14.426 14.426 0 0 1 .164.444l.081.222.079.223.08.223.078.224.077.224.017.049.06.176.076.224.076.225.076.225.077.224.075.225.076.226.075.225.075.225.074.225.075.226.075.226.073.226.074.225.073.226.074.226.072.227.073.226.072.226.072.227.046.146c-2.107-1.81-4.855-3.942-9.27-6.465a53.988 53.988 0 0 0-1.68-.907 78.093 78.093 0 0 0-4.056-2.038c-1.242-.582-2.184-.987-2.258-.936-.076.052.045.903.24 2.113.335 1.925.824 4.077 1.34 5.566.568 1.637 1.262 3.024 2.096 4.182 2.726 4.161 6.257 5.926 10.394 6.254.969.077 2.127.069 3.296-.004.723.013 1.427-.009 2.068-.06l.042.17.055.232.054.232.055.232.053.232.053.234.053.232.051.233.051.234.051.233.049.234.05.233.048.234.048.234.047.235.046.234.046.235.044.235.044.235.044.236.042.235.042.236.024.131.017.105.041.236.039.236.039.236.038.237.036.237.037.236.034.237.034.237.034.238.033.237.031.237.032.238.03.237.029.238.029.238.029.238.027.238.026.239.026.238.026.238.024.239.024.238.024.239.023.239.022.239.021.239.022.24.02.238.02.24.019.239.019.239.018.24.018.24.017.239.016.24.017.24.015.239.016.24.015.241.014.239.014.24.014.24.013.24.013.241.013.24.012.24.012.24.012.241.008.179c-2.02-2.704-5.167-5.243-9.999-7.863-2.121-1.15-7.626-3.668-7.774-3.54-.197.171 1.083 5.506 1.93 7.926 2.608 7.456 6.636 11.031 11.701 12.069 1.299.266 2.976.375 4.441.346v.02l.006.24c.002.08.002.161.005.241.002.08.002.161.005.241l.004.24.004.241c0 .08.002.161.004.241l.003.24c0 .081.003.161.003.241l.002.24.002.241v.962c0 .08 0 .16-.002.24l-.002.241-.003.24c0 .08-.002.161-.004.241-.002.08-.002.16-.005.24-.002.08-.002.16-.005.24l-.005.241-.007.239-.007.24-.008.24-.009.24-.01.24c-.003.08-.006.16-.011.24l-.012.239-.012.24-.014.24-.014.239-.015.24-.016.239-.018.239-.018.239-.02.239-.021.239-.022.239-.023.239-.025.238-.025.239-.027.239-.028.238v.003a18.83 18.83 0 0 1-.029.235l-.03.238-.032.237-.032.238-.034.237-.035.237-.036.237-.037.236-.038.236c-.013.079-.025.158-.039.236l-.04.236-.041.236c-.014.078-.027.157-.042.235l-.042.235-.044.235-.045.235-.046.235-.046.234-.047.234-.048.234-.049.234-.049.234-.051.233-.051.234-.052.232-.052.233-.053.233-.054.232-.055.233-.055.233-.056.231-.056.233-.057.231-.057.232-.016.061c-1.229-3.262-3.689-6.156-7.69-10.059a262.557 262.557 0 0 0-1.654-1.596c-.899-.859-2.506-2.319-3.884-3.605-1.379-1.286-2.538-2.381-2.64-2.336-.114.049-.289 1.983-.27 4.108.005 1.612.11 3.175.267 4.345 1.073 7.983 4.874 12.885 9.513 15.107 1.228.589 2.878 1.104 4.333 1.4l-.047.16-.067.228-.068.228a19.69 19.69 0 0 0-.068.228l-.069.228-.069.227-.07.228-.07.227-.071.227-.072.227-.071.227-.072.226-.073.226-.073.226-.075.225-.075.226-.075.225-.076.224-.077.224-.077.224-.079.224-.079.223-.08.224c-.026.074-.052.148-.08.222l-.081.223-.082.221-.083.222-.084.221-.084.221-.086.22a19.97 19.97 0 0 1-.086.22l-.087.219-.088.219-.089.218-.09.218-.092.217a14.1 14.1 0 0 1-.091.217l-.093.217-.094.216-.018.038-.077.177-.096.215-.097.214-.097.214-.099.213-.099.213-.1.213-.101.212-.101.211-.103.211-.103.21c-.034.071-.069.141-.104.21l-.105.21-.106.209-.105.208a39.732 39.732 0 0 1-.215.416l-.109.207-.109.207-.11.206-.111.206-.111.205-.112.205-.113.204-.113.204-.114.203-.115.203-.115.202-.116.203-.116.201-.118.201-.118.201-.118.2-.119.199-.12.2-.12.199-.121.198-.121.198-.122.198a13 13 0 0 0-.122.197l-.124.197-.123.196-.124.196-.125.195-.104.164a32.748 32.748 0 0 1-.147.225c-.042.065-.083.13-.126.194a8.687 8.687 0 0 1-.066.1c.727-4.244-.555-8.249-3.044-14.255a75.407 75.407 0 0 0-.891-2.453c-.431-1.126-1.422-3.434-2.173-5.154-.794-1.82-1.48-3.347-1.59-3.351-.127-.004-.997 1.772-1.84 3.79a32.615 32.615 0 0 0-1.316 3.988c-1.921 7.67-.482 14.281 2.616 18.693l.058.081c1.109 1.462 2.844 3.123 4.22 4.121l-.022.029-.142.18-.141.18-.143.179-.142.18-.143.179-.143.179-.048.06c-.08.073-.128.126-.128.149 0 .002.004.005.004.006l-.114.141-.144.178-.144.178-.144.177-.145.178-.145.177-.145.177-.144.177-.146.176-.145.177-.145.176-.146.176-.145.176-.146.176-.005.006-.141.17-.145.176-.147.175-.146.175-.146.175-.147.175-.147.175-.147.175-.148.174-.148.174-.147.174-.149.173-.148.173-.149.173-.149.173-.15.171-.149.172-.15.172-.15.171-.151.17-.151.17-.152.17-.151.17-.153.168-.152.168-.154.168-.153.167-.154.167-.154.166-.155.166-.156.164-.155.165-.157.164-.157.162-.157.163-.158.162-.159.161-.159.161-.159.159-.16.159-.162.158-.161.157-.162.158-.163.155-.146.139c.686-3.456.094-7.283-1.088-12.671a73.9 73.9 0 0 0-.452-2.6c-.23-1.199-.805-3.678-1.247-5.529-.466-1.958-.877-3.606-.984-3.633-.124-.031-1.283 1.521-2.457 3.319-.808 1.28-1.511 2.594-1.976 3.627-3.202 7.107-2.925 13.907-.643 18.909l.042.092c.636 1.272 1.608 2.737 2.556 3.93l-.022.017-.175.138-.175.137-.176.137-.176.137-.176.136-.176.135-.177.135-.178.134-.177.133-.178.133-.179.132-.178.132-.18.131-.179.131-.179.13-.181.129-.18.129-.181.127a20.02 20.02 0 0 1-.182.127l-.181.127-.182.126-.183.125-.182.125-.183.124-.184.123-.184.122-.184.122-.087.057a11.67 11.67 0 0 1-.283.183l-.186.119-.187.117-.187.116-.187.114-.189.114-.188.112-.19.111-.189.11-.191.109-.19.108-.191.107-.192.106-.192.105-.192.105-.193.103-.193.103-.194.101-.193.101-.195.101-.194.099-.195.099-.195.099-.195.098-.196.097-.196.097-.196.096-.196.096-.196.095-.197.095a17.573 17.573 0 0 1-.393.189l-.197.095-.197.093-.197.094-.197.094-.197.093-.198.093-.197.094-.197.093-.198.093-.197.093-.197.093-.197.094-.197.093-.197.094-.197.094-.196.093-.024.012-.173.083-.197.093-.197.094a3.307 3.307 0 0 1-.086.04c1.289-2.654 2.473-6.113 3.694-10.811.273-1.053.892-3.773 1.283-5.508.443-1.963.807-3.623.725-3.706-.077-.078-1.34.428-2.816 1.168-1.55.775-3.08 1.676-4.158 2.448-1.673 1.198-3.047 2.498-4.142 3.87-2.759 3.57-3.818 7.85-3.599 12.013.066 1.264.303 2.812.619 4.226l-.077.031-.201.085-.2.084-.2.084-.2.084-.201.084-.2.084-.2.084-.2.083-.201.085-.2.084-.2.084-.084.034-.116.049-.201.084-.201.083-.2.083-.201.082-.201.082-.201.082-.201.082-.201.081-.202.081-.201.08a42.42 42.42 0 0 1-.605.24 16.79 16.79 0 0 1-.201.08l-.202.08-.202.079-.201.08-.202.078-.203.079-.201.079-.202.079-.202.078-.203.079-.202.078-.202.078-.202.079-.202.078-.202.078-.203.078-.202.078-.202.079-.202.078-.202.078-.202.078-.202.079-.202.078-.202.079-.202.079-.202.078-.202.08-.202.079-.202.079a16.79 16.79 0 0 1-.201.08l-.202.08-.201.08-.202.08-.201.08-.201.081a42.42 42.42 0 0 0-.202.081l-.201.081-.201.082-.201.082-.201.082-.162.066c2.273-2.862 3.907-6.956 5.493-12.951l.01-.038c.352-1.236.905-3.589 1.336-5.512.441-1.965.789-3.631.708-3.712-.077-.076-1.225.399-2.649 1.082-1.592.782-3.266 1.739-4.423 2.53-3.326 2.274-5.733 4.896-7.296 7.641-1.342 2.478-2.041 5.158-2.174 7.94-.088 1.818.126 4.27.493 6.065-.87.18-1.777.357-2.857.615-1.237.258-2.906.424-4.04.381v.041c-.339-.02-.692.04-1.042.205-.608.285-.898.588-1.197 1.247-.506 1.116-.158 2.666.75 3.343.532.395 1.274.543 1.864.404.838-.052 2.738-.321 2.738-.321s4.19-.656 6.365-1.344c1.145 1.563 2.421 3.257 3.264 4.232a29.359 29.359 0 0 0 2.488 2.576c4.702 5.072 8.911 7.365 15.58 5.881.196-.044.413-.098.646-.161.891-.216 2.023-.576 2.778-.894.551-.232 1.11-.469 1.675-.71l-.466-1.383c-.587-1.742-1.982-4.204-3.221-5.729a17.166 17.166 0 0 0-5.048-4.211c-2.524-1.233-5.628-2.188-9.035-2.699l.099-.037.204-.075.203-.074.204-.074.203-.073.204-.074.204-.073.204-.073.203-.073.204-.072.204-.073.204-.072.204-.073.204-.072.204-.072.204-.071.204-.072.204-.072.204-.072.205-.071.204-.071.204-.072.204-.071.205-.072.204-.071.204-.071.204-.071.205-.072.204-.071.204-.071.204-.071.205-.072.204-.071.204-.071.205-.072.203-.072.205-.071.204-.072.204-.072.204-.072.204-.072.204-.072.204-.072.204-.073.203-.073.204-.073.204-.073.203-.073.204-.074.203-.073.204-.074.203-.074.203-.075.203-.074.203-.075.204-.075.202-.076.203-.075.203-.077.202-.076.203-.077.202-.077.203-.077.202-.078.176-.067c1.002 1.299 2.078 2.629 2.8 3.409 2.357 2.546 4.685 4.395 7.114 5.533 3.231 2.109 7.102 2.686 13.284-.21.179-.084.372-.178.577-.282 1.181-.604 2.583-1.461 3.515-2.143.622-.456 1.233-.915 1.836-1.377l-.713-1.186c-.89-1.481-2.797-3.395-4.349-4.447-1.834-1.244-3.92-2.055-6.306-2.551-2.196-.322-5.517-.664-8.581-.854l.173-.088.194-.1.194-.101.194-.101.194-.101.194-.102.193-.102.194-.102.193-.104.193-.103.192-.104.193-.104.192-.106.193-.105.191-.105.193-.107.191-.106.191-.107.191-.107.191-.109.191-.108.19-.109.19-.11.191-.11.19-.11.19-.111.189-.111.189-.112.189-.111.19-.113.188-.113.189-.114.187-.113.189-.115.187-.115.187-.116.188-.115.187-.116.187-.117.186-.118.187-.117.186-.118.186-.12.185-.119.186-.119.022-.014.163-.106.185-.12.185-.121.185-.121.185-.121.184-.122.185-.122.184-.122.184-.123.184-.122.183-.124.184-.123.183-.125.183-.124.182-.125.184-.126.181-.125.183-.127.182-.126.181-.128.181-.127.181-.129.181-.128.18-.13.181-.129.179-.13.18-.131.179-.132.179-.131.178-.133.178-.133.178-.133.177-.134.177-.135.177-.136.176-.136.176-.136.126-.099c.217.175.43.348.667.533 1.439 1.117 3.04 2.234 4.106 2.852 3.54 2.051 6.836 3.004 9.931 2.94 3.827-.515 7.368-2.384 10.318-4.988.232-.205.495-.454.763-.722a21.614 21.614 0 0 0 1.824-1.969c.409-.512.825-1.039 1.246-1.584l-.91-.924c-1.139-1.155-3.276-2.477-4.898-3.101-1.668-.641-3.441-.954-5.299-.975-3.359 0-6.696 1.137-11.343 2.956-.294.105-.592.215-.893.326-.087.033-.33.131-.452.178l.02-.02.159-.159.16-.161.158-.161.159-.161.157-.162.158-.163.157-.162.156-.165.156-.163.156-.165.154-.165.155-.166.154-.167.154-.167.153-.167.153-.168.153-.168.152-.169.151-.17.151-.17.151-.17.15-.172.15-.171a22.838 22.838 0 0 0 .298-.344l.149-.174.148-.173.148-.174.147-.174.147-.175.146-.174.146-.176.146-.176.145-.177.145-.177.144-.178.144-.177.144-.178.143-.179.143-.179.142-.179.143-.18.142-.18.14-.181.142-.18.14-.182.141-.181.14-.182.139-.182.139-.183.139-.183.138-.183.138-.184.138-.184.137-.185.137-.184.137-.185.136-.186.135-.185.035-.048.101-.138.135-.186.136-.186.135-.186.135-.187.135-.187.134-.187.135-.187.134-.188.134-.188.134-.188.133-.187.134-.189.093-.132c1.262.489 2.493.906 3.395 1.133 2.837.714 5.475.858 7.978.32 4.189-.734 7.968-3.322 11.194-8.396.263-.437.519-.881.766-1.332.762-1.387 1.642-3.356 2.117-4.701.274-.775.529-1.531.769-2.268l-1.16-.464c-1.451-.579-3.915-.848-5.678-.66-2.645.283-5.198 1.385-8.062 3.221-1.653 1.008-3.425 2.227-5.279 3.564l.046-.085.111-.205.11-.206.109-.207.108-.207.108-.207.107-.208.106-.208.105-.209.106-.208.104-.21.103-.21.103-.211.101-.211.102-.212.1-.212.1-.212.099-.213.097-.213.085-.187.013-.028.097-.214.096-.215.096-.214.096-.216.095-.215.096-.216.094-.215.094-.216a20.173 20.173 0 0 0 .188-.433l.094-.216.093-.218.092-.216.092-.218.092-.217.091-.218.091-.218.091-.218.09-.218.09-.219.089-.219.089-.218.088-.22.089-.22.087-.219.087-.22.087-.22.087-.221.085-.22.086-.221.085-.221.084-.221.084-.222.084-.222.083-.221.082-.222.083-.223.081-.223.082-.222.08-.223a19.877 19.877 0 0 0 .159-.447l.08-.223.078-.224.078-.224.078-.224.077-.224.076-.225.076-.225.073-.219c1.544-.057 3.185-.185 4.203-.341.181-.028.361-.057.538-.087 3.465-.48 6.334-1.495 8.662-3.499 2.316-1.993 4.19-5.052 5.473-9.714.163-.699.31-1.405.439-2.116.292-1.598.528-3.786.576-5.211.028-.825.046-1.621.055-2.391l-1.17-.004c-1.465-.005-3.751.648-5.279 1.471-2.414 1.3-4.451 3.39-6.617 6.386-1.254 1.658-2.813 3.858-4.301 6.019l.033-.163.047-.233.047-.234.046-.235.045-.235.045-.234.044-.236.042-.235.043-.235.041-.236.041-.235.039-.237c.014-.078.026-.157.039-.236l.039-.237.037-.236.035-.226.002-.011.036-.237.035-.237.034-.237.034-.237.032-.238.032-.237.032-.238.03-.238.03-.237.028-.238.028-.238.028-.238.026-.238.026-.238.026-.238.024-.238a190.101 190.101 0 0 1 .048-.476l.022-.239.021-.238.021-.239.021-.239.02-.239.019-.238.018-.239.018-.239.017-.239.016-.239.016-.239.015-.239.014-.24.014-.239.014-.239.012-.24.012-.239.012-.24.01-.239.01-.24.01-.239.009-.24.009-.239.008-.241.007-.239.007-.24.007-.24.005-.24c.002-.08.002-.16.005-.24.002-.08.002-.159.005-.239.002-.08.002-.161.005-.241.002-.08.004-.16.004-.24.003-.08.003-.16.003-.24l.003-.24.002-.24c0-.08 0-.161.002-.241v-.48a9.68 9.68 0 0 0 0-.241v-.48c0-.08.001-.16-.002-.24l-.002-.241v-.089c1.506-.608 3.119-1.328 4.077-1.832 1.925-1.012 3.566-2.07 4.961-3.135 3.88-2.99 6.075-6.957 6.089-13.427.003-1.296-.16-3.237-.399-4.638l-.046-.264c-.133-.669-.271-1.33-.414-1.983l-1.177.273c-1.468.34-3.632 1.501-4.992 2.612-.228.186-.451.38-.67.582-3.057 2.9-5.647 7.663-7.769 13.214l-.014-.212-.016-.24-.016-.241-.016-.24-.017-.24-.017-.241-.017-.24-.017-.24-.017-.24-.017-.24-.018-.241-.019-.24-.018-.24-.019-.24-.018-.24-.019-.24a19.221 19.221 0 0 1-.039-.479 19.4 19.4 0 0 1-.02-.24l-.02-.24-.02-.24a19.221 19.221 0 0 1-.039-.479l-.021-.24-.021-.24-.02-.239-.022-.24-.02-.239-.022-.239-.021-.24-.014-.167-.007-.071-.022-.24-.024-.239-.024-.239a21.448 21.448 0 0 0-.025-.238l-.027-.239-.027-.238a19.304 19.304 0 0 0-.029-.238 19.304 19.304 0 0 0-.029-.238l-.03-.238-.032-.238-.032-.237-.033-.237-.035-.237a19.497 19.497 0 0 0-.035-.238l-.036-.237-.038-.236-.038-.237-.039-.236-.04-.236-.04-.236-.042-.236-.042-.235-.043-.236-.045-.235a9.794 9.794 0 0 0-.045-.236l-.045-.234-.047-.235-.047-.234a95.822 95.822 0 0 0-.048-.235l-.049-.234a19.466 19.466 0 0 1-.049-.234l-.051-.234a88.687 88.687 0 0 1-.051-.233l-.051-.234a15.902 15.902 0 0 1-.053-.233 15.902 15.902 0 0 1-.053-.233l-.054-.233-.055-.232-.055-.232-.056-.233-.056-.231a79.734 79.734 0 0 0-.173-.695l-.059-.231-.019-.077-.04-.154-.055-.21c1.258-.961 2.524-2.028 3.303-2.799 4.847-4.803 6.804-10.058 6.466-15.584a34.948 34.948 0 0 0-.719-3.827 25.63 25.63 0 0 0-.511-1.747 23.13 23.13 0 0 0-.638-1.74c-.232-.547-.463-1.086-.693-1.618l-1.02.534c-1.284.671-3.055 2.165-4.12 3.46-.891 1.086-1.63 2.316-2.23 3.708-.759 1.707-1.233 3.66-1.574 6.09-.359 1.8-.582 3.759-.727 5.957l-.046-.123-.082-.222-.084-.221-.083-.222-.084-.221-.084-.221a52.442 52.442 0 0 0-.084-.221l-.085-.222a52.442 52.442 0 0 1-.084-.221l-.085-.221-.084-.22-.086-.221-.085-.22-.013-.033-.072-.188-.085-.221-.085-.22-.085-.221a20.023 20.023 0 0 1-.085-.221 19.97 19.97 0 0 1-.086-.22l-.086-.221-.085-.22-.087-.221-.085-.22-.087-.22a33.593 33.593 0 0 0-.088-.22l-.087-.219-.089-.22-.088-.218-.09-.219-.09-.218-.091-.218-.092-.217-.092-.217-.093-.216-.095-.216-.094-.215-.097-.215-.097-.213-.098-.213-.099-.213-.101-.212-.103-.211-.103-.21-.104-.209-.106-.209-.108-.207a20.484 20.484 0 0 0-.109-.206l-.11-.206-.112-.205-.071-.125-.043-.078-.116-.202-.117-.2-.119-.201-.121-.198-.122-.197-.123-.197-.125-.195-.126-.194-.126-.195-.128-.192-.128-.193-.128-.192-.13-.191-.088-.129c-.013-.021-.028-.041-.042-.062l-.13-.191-.118-.171c.01-.295.024-.615.031-.896.032-1.212-.072-2.718-.22-3.576-.159-.922-.375-1.66-.638-2.266-1.347-5.595-4.757-8.904-10.476-11.922-.917-.483-2.638-1.272-4.065-1.901-1.359-.599-2.525-1.087-2.723-1.089zm-135.682 1.902c-.197.002-1.364.484-2.724 1.077-1.427.622-3.147 1.401-4.064 1.879-5.72 2.983-9.129 6.254-10.476 11.786-.263.598-.48 1.328-.638 2.239-.148.848-.253 2.337-.221 3.535.01.278.022.594.031.886l-.118.169-.13.189-.042.061-.088.128-.129.189-.129.189-.128.191-.128.19-.126.192-.126.192-.125.194c-.041.064-.083.129-.123.194l-.122.195c-.04.065-.081.13-.12.196-.041.065-.08.132-.12.198-.039.066-.079.131-.117.198l-.116.2-.044.076-.07.124c-.038.068-.075.135-.111.203l-.111.204-.109.203-.107.205-.106.206-.105.207-.103.208-.103.209-.1.209-.099.21-.098.211-.098.211-.096.212-.095.213a19.61 19.61 0 0 0-.094.212l-.093.215-.092.214-.092.215-.091.215-.09.216-.09.216-.088.216-.089.216-.088.218-.087.217-.087.217-.086.218-.087.218-.086.218-.086.218-.085.218-.085.218-.085.219-.085.218-.085.218-.073.185c0 .011-.01.022-.013.033l-.085.218-.085.218-.085.218-.085.218-.084.219-.084.219-.084.218-.084.219-.084.218-.083.219-.084.219-.082.22-.046.121c-.146-2.173-.368-4.11-.728-5.889-.34-2.402-.814-4.333-1.573-6.02-.6-1.376-1.339-2.592-2.231-3.665-1.064-1.28-2.835-2.757-4.119-3.42l-1.02-.528c-.23.526-.461 1.059-.693 1.599-.197.458-.426 1.08-.638 1.721-.193.58-.381 1.207-.511 1.727a34.096 34.096 0 0 0-.719 3.782c-.338 5.463 1.619 10.657 6.466 15.405.779.763 2.045 1.817 3.303 2.767l-.055.208-.04.152c-.01.025-.013.051-.019.076l-.059.228-.058.229-.058.229-.057.229-.056.23-.056.229-.055.23-.055.229-.054.231-.053.23-.053.231-.052.23-.051.231-.05.231-.05.231-.049.232-.048.232-.047.231-.047.232-.046.232-.045.233-.044.233-.043.233-.043.232-.042.233-.041.234-.04.233-.039.234-.038.233a18.94 18.94 0 0 0-.037.234l-.036.234-.036.235-.034.234-.034.235-.033.234-.031.236-.031.235-.029.235-.028.235-.028.236c-.01.078-.017.157-.026.236-.01.079-.017.157-.026.236-.01.078-.016.157-.024.235-.01.079-.015.158-.023.236-.01.079-.015.159-.022.237l-.01.072c-.01.055-.01.11-.014.165-.01.078-.014.157-.021.236-.01.079-.014.158-.021.237-.01.079-.014.157-.021.236-.01.079-.014.158-.021.237-.01.079-.014.158-.021.237-.01.079-.013.158-.02.236-.01.079-.014.159-.021.238-.01.079-.014.157-.02.236-.01.079-.014.158-.02.237-.01.079-.013.158-.019.237-.01.079-.014.158-.02.237-.01.079-.013.159-.019.238-.01.079-.013.157-.019.236-.01.079-.013.158-.019.237-.01.08-.013.159-.019.238-.01.079-.012.158-.018.237-.01.079-.013.159-.019.238-.01.079-.012.158-.018.237-.01.079-.013.158-.018.237-.01.079-.012.159-.018.238-.01.079-.012.158-.018.237-.01.079-.012.158-.017.238-.01.079-.011.157-.017.237-.01.079-.012.158-.017.238-.01.079-.012.158-.017.237-.01.079-.011.158-.017.237-.01.08-.011.159-.016.238-.01.079-.011.159-.016.238-.01.079-.01.158-.015.237 0 .07-.01.14-.014.209-2.122-5.486-4.712-10.195-7.769-13.062a15.072 15.072 0 0 0-.67-.575c-1.36-1.098-3.523-2.246-4.992-2.582l-1.177-.269c-.143.645-.281 1.298-.414 1.96l-.046.26c-.239 1.385-.402 3.304-.4 4.586.014 6.395 2.21 10.317 6.09 13.272 1.395 1.053 3.036 2.099 4.961 3.099.958.498 2.571 1.21 4.076 1.811V798.47c0 .079 0 .158.01.237 0 .079 0 .158.01.237 0 .079 0 .158.01.237 0 .079 0 .158.01.237 0 .079 0 .158.01.237 0 .079.01.159.01.238 0 .079.01.157.01.236 0 .079.01.158.01.237 0 .079.01.158.01.237 0 .079.01.158.011.237 0 .079.01.158.01.237 0 .079.01.158.012.237 0 .078.01.157.012.236 0 .079.01.158.012.237 0 .079.01.158.014.237 0 .078.01.157.014.236 0 .079.01.158.014.237 0 .079.01.157.015.236.01.079.01.157.016.236.01.079.011.158.017.237.01.078.011.157.017.236.01.078.011.157.017.236.01.079.012.158.018.236.01.079.013.157.019.236.01.079.013.158.019.236.01.079.014.157.021.236.01.078.014.157.021.236.01.079.014.157.022.236.01.078.014.157.022.235.01.079.015.157.023.236.01.078.016.157.024.236.01.078.016.156.025.235.01.078.016.157.025.235.01.079.017.157.026.235.01.079.017.158.026.236l.028.235.028.236.029.234c.01.079.019.157.03.235l.03.235.031.235.032.235.033.234.034.235.034.234.035.234.036.235v.011l.035.223.037.234.038.234.039.233a19.058 19.058 0 0 0 .081.467l.042.233.042.232.042.233.044.232.045.233.045.232.046.231.047.232.048.231.033.161c-1.487-2.137-3.047-4.311-4.301-5.95-2.166-2.962-4.203-5.028-6.617-6.313-1.528-.814-3.814-1.459-5.279-1.454l-1.17.004c.01.76.027 1.548.055 2.363.048 1.409.283 3.572.575 5.152.13.703.277 1.401.44 2.091 1.282 4.608 3.156 7.632 5.473 9.603 2.328 1.981 5.196 2.984 8.662 3.458.177.03.357.059.538.087 1.018.154 2.659.28 4.202.336l.074.217.076.222c.024.074.05.149.076.223a9.7 9.7 0 0 1 .076.222l.078.221.078.221.078.222.08.22.079.222.08.22.079.22c.028.074.054.147.083.221l.081.219c.026.074.055.147.083.221l.081.219c.029.073.055.146.083.219l.084.219.083.219.085.219.084.219.086.218.086.218.086.218.086.217.088.217.086.218.089.217.088.217.089.216.089.216c.03.072.059.145.09.217l.089.215.091.216.092.216.091.215.091.215.093.214.092.215.093.214.092.215.095.213c.03.071.061.143.094.214l.094.214.094.213.096.213.094.213.097.213.096.211.096.213.097.212c0 .009.01.019.013.028l.086.183c.031.071.065.142.096.212l.099.21.101.21c.032.07.066.14.1.21l.101.209.102.209.103.208.103.207.104.208.105.206.106.206.106.207.107.205.107.205.109.204.109.204.109.204.111.203.046.084c-1.853-1.322-3.626-2.527-5.279-3.523-2.864-1.816-5.416-2.904-8.062-3.184-1.763-.186-4.227.079-5.678.652l-1.16.458c.24.729.496 1.477.769 2.243.475 1.329 1.355 3.276 2.117 4.647.247.446.503.885.766 1.317 3.226 5.015 7.005 7.574 11.194 8.3 2.503.531 5.142.389 7.979-.317.901-.224 2.132-.636 3.395-1.12l.092.131a21.59 21.59 0 0 0 .268.372l.133.185.134.186.134.185.135.185.134.185.135.185.135.185.135.184.136.184.135.184.101.136.035.047.136.184.135.183.137.183.137.183.137.182.138.182.138.181a28.481 28.481 0 0 0 .278.362c.045.061.092.121.138.181l.139.18.14.18.141.18.141.179.141.179.141.178.141.178.143.178.142.177.143.177.143.176.144.177.144.175.144.176.145.175.145.174.146.174.146.174.147.173.147.172.147.173c.049.057.099.114.147.172l.148.171.149.171.149.171.149.169.15.17.151.169.15.169.151.168.151.167.152.167.152.167.154.166.153.166.154.164.154.165.155.164.155.163.155.163.156.162.156.162.158.161.157.161.158.16.158.159.159.159.159.159.16.157c.01.007.013.014.02.021-.123-.047-.365-.144-.453-.176a66.182 66.182 0 0 0-.893-.323c-4.647-1.798-7.983-2.921-11.342-2.922-1.858.021-3.632.33-5.3.964-1.622.617-3.758 1.924-4.898 3.066l-.91.912a128.9 128.9 0 0 0 1.246 1.567c.485.6 1.183 1.34 1.825 1.946.268.265.53.512.762.714 2.951 2.574 6.492 4.421 10.318 4.93 3.096.064 6.391-.879 9.931-2.906 1.066-.61 2.667-1.715 4.106-2.82.237-.182.451-.353.668-.526l.126.097.176.136.176.134.176.134.177.133.178.133a27.48 27.48 0 0 0 .355.263l.179.131.179.13a20.162 20.162 0 0 0 .358.26l.18.129.18.128.18.127.181.127.181.127.181.126.182.126.182.125.182.125.182.125.183.124.183.123.183.123.183.123.183.122.184.122.184.122.184.121.184.121.184.12.185.121.185.119.184.12.185.12.185.118.163.105.022.014.186.118.186.118.185.117.187.117.186.116.187.116.187.116.186.115.188.114.188.114.187.114.188.113.188.113.189.112.188.112.189.111.189.111.189.11.19.11.189.11.191.109.19.109.19.108.191.107.19.107.191.107.192.107.191.105.191.106.192.105.192.104.192.104.192.104.193.103.193.103c.064.035.128.068.193.102l.193.102.193.102.193.101.194.1.194.1.194.1.195.099.194.099.172.088c-3.063.187-6.384.525-8.581.844-2.386.49-4.471 1.292-6.305 2.521-1.553 1.04-3.459 2.933-4.35 4.397l-.712 1.171a94.98 94.98 0 0 0 1.836 1.362c.931.675 2.333 1.521 3.514 2.119.205.102.399.196.578.278 6.182 2.863 10.053 2.292 13.283.208 2.429-1.125 4.758-2.953 7.114-5.47.722-.771 1.799-2.086 2.801-3.37l.176.067.202.077.202.076.203.076.202.076.203.076.203.075.202.075.203.074.204.074.202.074.204.074.203.074.203.073.204.073.203.073.203.073.204.072.203.072.204.072.204.072.204.072.204.072.204.071.204.071.204.071.204.071.204.071.204.071.204.071.204.071.204.07.205.071.204.071.204.07.204.07.205.071.204.07.204.071.204.07.205.07.204.071.204.07.205.071.204.071.204.07.204.071.205.071.204.07.204.071.204.072.204.071.204.072.204.071.204.072.203.071.204.072.204.073.204.072.204.073.203.072.203.074.204.073.203.073.099.036c-3.407.506-6.51 1.45-9.034 2.669a17.12 17.12 0 0 0-5.048 4.163c-1.24 1.507-2.634 3.94-3.221 5.662l-.466 1.368c.565.239 1.123.472 1.675.702.754.314 1.887.67 2.778.884.233.062.45.116.646.159 6.669 1.467 10.878-.8 15.58-5.814a29.146 29.146 0 0 0 2.488-2.546c.843-.964 2.119-2.639 3.263-4.184 2.175.681 6.365 1.329 6.365 1.329s1.9.266 2.739.317c.589.137 1.332-.009 1.863-.399.909-.669 1.257-2.201.751-3.305-.299-.651-.59-.95-1.197-1.232a2.15 2.15 0 0 0-1.042-.203v-.04c-1.134.042-2.804-.122-4.04-.378-1.081-.254-1.987-.429-2.858-.607.368-1.774.581-4.198.494-5.996-.134-2.75-.833-5.399-2.174-7.848-1.563-2.714-3.97-5.306-7.296-7.553-1.157-.782-2.831-1.729-4.424-2.501-1.423-.676-2.572-1.146-2.649-1.071-.081.081.268 1.727.708 3.67.432 1.901.984 4.227 1.336 5.449l.011.037c1.586 5.927 3.219 9.974 5.492 12.803l-.162-.066-.201-.081-.2-.081-.202-.081a16.79 16.79 0 0 1-.201-.08l-.201-.08-.201-.08-.201-.079-.202-.079a12.105 12.105 0 0 0-.202-.079l-.201-.079-.202-.079c-.067-.027-.134-.052-.202-.078-.067-.027-.135-.052-.202-.078l-.201-.079-.202-.078-.202-.077-.203-.079-.202-.077-.202-.077-.202-.078-.202-.077-.202-.078a16.671 16.671 0 0 1-.202-.077l-.202-.077-.202-.078a12.07 12.07 0 0 1-.202-.077l-.203-.077-.202-.078-.202-.077a16.671 16.671 0 0 0-.202-.077l-.202-.078a16.671 16.671 0 0 1-.202-.077l-.202-.078-.202-.078-.202-.078-.202-.078-.202-.078-.201-.078-.202-.079-.202-.079-.202-.079-.201-.079-.202-.08-.201-.079a16.79 16.79 0 0 0-.201-.08l-.201-.081-.201-.08-.201-.081-.201-.081-.201-.082-.201-.081-.2-.082-.201-.083-.116-.048-.084-.035-.201-.083-.2-.083-.2-.083-.201-.083-.2-.083-.2-.083-.2-.083-.201-.083a11.96 11.96 0 0 0-.2-.083l-.2-.083-.2-.084-.077-.031c.316-1.398.553-2.928.619-4.177.219-4.116-.84-8.347-3.6-11.876-1.094-1.356-2.468-2.641-4.141-3.825-1.079-.763-2.609-1.653-4.158-2.42-1.477-.731-2.739-1.232-2.816-1.154-.082.082.282 1.722.724 3.663.391 1.715 1.01 4.404 1.284 5.445 1.221 4.644 2.405 8.063 3.693 10.687l-.085-.04-.197-.092-.197-.093-.173-.081-.024-.012-.197-.093-.197-.093-.196-.092-.198-.092-.197-.093-.197-.092-.197-.092-.197-.092-.198-.092-.197-.092-.197-.093-.197-.092-.197-.092-.198-.093-.196-.092-.198-.094-.196-.093a17.597 17.597 0 0 1-.197-.094l-.196-.094a17.597 17.597 0 0 1-.197-.094l-.196-.095-.196-.095-.196-.096-.195-.096-.196-.096-.195-.098-.194-.098-.195-.098-.194-.099-.194-.1-.193-.101-.194-.101-.192-.102-.192-.103-.192-.104-.192-.105-.192-.106-.19-.107a32.218 32.218 0 0 1-.19-.108l-.19-.109-.189-.109-.189-.111-.188-.112-.188-.113-.187-.115a18.995 18.995 0 0 1-.187-.116l-.186-.117a19.037 19.037 0 0 1-.185-.118l-.098-.063-.087-.057c-.061-.04-.123-.079-.184-.12l-.184-.121-.183-.121-.183-.123-.183-.123a11.635 11.635 0 0 1-.182-.124l-.183-.124-.181-.126a19.601 19.601 0 0 1-.362-.252 11.7 11.7 0 0 1-.181-.127l-.18-.127-.18-.129-.179-.129-.179-.129-.179-.131a20.216 20.216 0 0 1-.356-.262l-.178-.132-.177-.132-.177-.134-.177-.133-.176-.134-.176-.135-.176-.136-.175-.136-.175-.137-.021-.016c.947-1.18 1.919-2.627 2.556-3.885l.043-.09c2.281-4.945 2.558-11.667-.644-18.693a30.475 30.475 0 0 0-1.976-3.585c-1.174-1.777-2.333-3.312-2.457-3.281-.107.027-.518 1.656-.985 3.591-.441 1.83-1.017 4.281-1.246 5.466a75.01 75.01 0 0 0-.453 2.57c-1.182 5.326-1.773 9.11-1.087 12.525l-.147-.136-.162-.154-.162-.156-.162-.155-.161-.156-.16-.158-.159-.158a23.688 23.688 0 0 1-.16-.158l-.158-.159-.159-.16-.157-.161-.156-.161-.157-.162-.155-.163-.156-.162-.155-.164-.155-.164-.153-.165-.154-.165-.153-.166-.153-.166-.152-.167-.152-.168a22.869 22.869 0 0 1-.302-.335l-.151-.169-.15-.169-.151-.17-.149-.169-.149-.17-.15-.171-.148-.171-.149-.171-.148-.171-.148-.172-.147-.172-.148-.172-.147-.173-.147-.172-.147-.174-.146-.173-.146-.173-.147-.173-.146-.174-.14-.168c0-.002 0-.004-.01-.006l-.146-.174-.145-.174-.146-.174-.145-.174-.146-.174-.145-.175-.145-.175-.145-.175-.145-.175a27.22 27.22 0 0 1-.144-.176l-.144-.175-.144-.175-.144-.177-.114-.139v-.006c0-.022-.048-.075-.128-.147l-.048-.06-.143-.177c-.048-.059-.096-.117-.143-.177l-.142-.177-.142-.178-.142-.177-.142-.179c-.01-.009-.015-.018-.023-.027 1.377-.988 3.112-2.63 4.221-4.074l.057-.08c3.098-4.362 4.537-10.897 2.617-18.479a31.958 31.958 0 0 0-1.316-3.942c-.843-1.995-1.714-3.75-1.841-3.746-.109.003-.795 1.513-1.59 3.312-.75 1.701-1.741 3.981-2.172 5.095a70.676 70.676 0 0 0-.891 2.425c-2.489 5.936-3.771 9.895-3.045 14.091l-.066-.098-.126-.192-.125-.192c-.01-.011-.014-.021-.021-.032l-.105-.161a58.319 58.319 0 0 1-.248-.387l-.124-.194a32.847 32.847 0 0 1-.123-.194l-.123-.195-.122-.195-.121-.196-.121-.196a34.094 34.094 0 0 1-.24-.394l-.119-.197-.118-.198-.118-.199-.117-.198a35.048 35.048 0 0 0-.117-.199l-.116-.201-.115-.2-.115-.2-.114-.201a20.332 20.332 0 0 1-.113-.201l-.113-.203-.112-.202-.111-.203-.111-.203a20.343 20.343 0 0 1-.11-.204l-.109-.204a38.396 38.396 0 0 0-.216-.41l-.108-.206-.106-.206c-.034-.069-.07-.137-.105-.206l-.105-.207-.104-.208-.103-.208-.103-.208-.101-.21a13.449 13.449 0 0 1-.101-.209l-.1-.21-.099-.21-.099-.211a19.924 19.924 0 0 1-.097-.212l-.097-.212-.096-.212-.078-.175c-.01-.012-.012-.025-.017-.038a19.75 19.75 0 0 1-.094-.213l-.093-.214-.092-.215-.091-.215-.09-.215-.089-.216a19.58 19.58 0 0 1-.088-.216l-.087-.217a19.536 19.536 0 0 1-.171-.435l-.085-.218-.083-.219-.083-.219-.082-.219-.081-.22a19.437 19.437 0 0 1-.08-.22l-.079-.22-.079-.221-.079-.221-.077-.222-.077-.222-.076-.222-.075-.222-.075-.222-.074-.223-.074-.224-.072-.223-.073-.224-.071-.224-.071-.224-.071-.225-.071-.224-.07-.225-.069-.225-.069-.225-.068-.225-.068-.226-.068-.225-.047-.158c1.455-.293 3.104-.803 4.333-1.384 4.639-2.198 8.44-7.042 9.513-14.934.157-1.156.262-2.702.267-4.296.019-2.1-.156-4.012-.27-4.061-.102-.043-1.261 1.039-2.639 2.31-1.379 1.271-2.987 2.714-3.885 3.564-.576.544-1.126 1.069-1.654 1.578-4.001 3.858-6.461 6.718-7.69 9.943-.01-.02-.01-.04-.015-.06l-.058-.23-.056-.228-.057-.23-.056-.23-.055-.229-.055-.23-.054-.23-.053-.23-.053-.23-.052-.23-.052-.231-.05-.231-.05-.231a19.001 19.001 0 0 0-.049-.231l-.048-.231a19.057 19.057 0 0 1-.093-.463l-.045-.232-.045-.232-.044-.233-.043-.232-.042-.233-.041-.233a18.902 18.902 0 0 1-.04-.233l-.039-.233-.038-.234a18.785 18.785 0 0 1-.037-.233l-.036-.234-.034-.235-.034-.234-.033-.235-.032-.235-.03-.234-.029-.233v-.003l-.028-.236c-.01-.078-.018-.157-.027-.235-.01-.079-.017-.157-.026-.236-.01-.079-.016-.158-.024-.236-.01-.079-.016-.157-.023-.236-.01-.079-.016-.157-.023-.236-.01-.079-.014-.158-.021-.237-.01-.078-.013-.157-.019-.236-.01-.078-.013-.157-.019-.236-.01-.079-.012-.158-.017-.237-.01-.079-.011-.157-.017-.236-.01-.079-.01-.158-.015-.236-.01-.079-.01-.159-.015-.237 0-.079-.01-.158-.014-.237 0-.079-.01-.158-.012-.237 0-.079-.01-.158-.012-.237 0-.079-.01-.158-.01-.237 0-.079-.01-.158-.01-.237 0-.079-.01-.158-.01-.238 0-.079-.01-.157-.01-.237 0-.079 0-.158-.01-.237 0-.079 0-.158-.01-.237 0-.079 0-.159-.01-.238v-.237-.238-.237-.238-.238-.237-.238-.713-.238-.237-.239-.237-.238-.238-.238-.238c0-.079 0-.159.01-.238 0-.079 0-.158.01-.237v-.021c1.465.029 3.142-.079 4.441-.342 5.066-1.026 9.093-4.559 11.702-11.93.846-2.392 2.126-7.665 1.929-7.835-.148-.126-5.653 2.363-7.774 3.5-4.832 2.59-7.979 5.099-9.999 7.773 0-.059.01-.118.01-.178 0-.079.01-.158.012-.238 0-.079.01-.158.012-.237 0-.079.01-.158.012-.237 0-.08.01-.159.013-.238 0-.079.01-.158.013-.237 0-.079.01-.159.013-.238 0-.079.01-.158.014-.237 0-.079.01-.158.014-.237 0-.079.01-.158.014-.237 0-.079.01-.159.015-.238.01-.079.01-.158.015-.237.01-.079.01-.158.016-.237.01-.079.011-.158.016-.237.01-.079.011-.158.017-.237.01-.079.011-.158.017-.237.01-.079.012-.157.018-.236.01-.079.012-.158.018-.237.01-.079.012-.158.019-.237.01-.079.013-.158.019-.236.01-.079.013-.159.02-.237.01-.079.014-.158.021-.237.01-.078.014-.157.021-.236.01-.078.015-.158.022-.236.01-.079.015-.158.022-.236.01-.079.015-.158.023-.237.01-.078.015-.157.023-.236.01-.078.016-.157.024-.236.01-.078.016-.157.025-.235.01-.079.016-.158.025-.236l.027-.235c.01-.079.017-.158.026-.236l.027-.236.028-.235.029-.235.029-.235.03-.235.031-.235.032-.235.032-.234.034-.235.035-.234.035-.234.036-.234.037-.234.038-.234.038-.234.039-.233.04-.234c.01-.034.012-.069.018-.104.01-.043.015-.085.023-.128l.042-.233.042-.234.043-.232.045-.233.044-.232.046-.232.046-.232.047-.232.048-.231.049-.231.049-.231.05-.231.05-.231.051-.231.052-.23.052-.23.053-.23.053-.23.054-.23.055-.229.056-.229.041-.169c.642.051 1.346.073 2.069.06 1.169.072 2.326.081 3.296.004 4.137-.324 7.668-2.069 10.393-6.182.835-1.145 1.529-2.516 2.097-4.134.516-1.472 1.004-3.6 1.339-5.502.196-1.197.317-2.038.241-2.089-.074-.05-1.016.35-2.258.925a78.632 78.632 0 0 0-4.057 2.014 57.64 57.64 0 0 0-1.68.897c-4.414 2.494-7.163 4.602-9.269 6.391l.046-.144.072-.224.072-.224.072-.224.073-.224.073-.223.073-.223.074-.224.074-.223.074-.223.075-.223.075-.223.075-.223.075-.222.075-.222.076-.223.076-.222.076-.222.076-.222.077-.222.06-.174c.01-.016.011-.032.017-.048l.077-.221.078-.222a19.499 19.499 0 0 1 .159-.441l.08-.22.082-.22.082-.219.083-.219.083-.219.084-.219.085-.218.085-.218.086-.217.086-.218.086-.217.087-.218.087-.217.088-.216.087-.218.088-.216.088-.216.015-.038.073-.179.088-.216.089-.216.089-.216.09-.215.09-.216.09-.216.091-.215.09-.216.091-.215.09-.215.091-.216.091-.214.091-.215.091-.215.091-.215.092-.214.092-.215.058-.133c1.395-.13 3.552-.971 4.957-1.812 2.55-1.528 5.083-4.091 6.929-6.868 1.054-1.932 2.064-4.182 2.964-6.658.412-1.135.981-2.93 1.409-4.425.431-1.506.726-2.741.66-2.808 0-.004-.013-.007-.026-.007zm68.367 155.322c-2.164-.046-4.045 1.682-4.045 4.102 0 1.743.856 3.029 2.513 3.775 1.07.482 2.721.29 3.833-.446 1.581-1.046 2.187-3.446 1.306-5.173-.521-1.019-1.026-1.488-2.083-1.929a4.182 4.182 0 0 0-1.524-.329z" fill="#fff"/>
    </g>
  </g>
</svg>
